<?xml version="1.0" standalone="no"?>
<!DOCTYPE svg PUBLIC "-//W3C//DTD SVG 20010904//EN"
 "http://www.w3.org/TR/2001/REC-SVG-20010904/DTD/svg10.dtd">
<svg version="1.0" xmlns="http://www.w3.org/2000/svg"
 width="512.000000pt" height="512.000000pt" viewBox="0 0 512.000000 512.000000"
 preserveAspectRatio="xMidYMid meet">

<g transform="translate(0.000000,512.000000) scale(0.100000,-0.100000)"
fill="#000000" stroke="none">
<path d="M2285 4999 c-462 -56 -911 -244 -1270 -534 -104 -84 -296 -278 -377
-380 -256 -324 -424 -703 -499 -1130 -27 -152 -37 -473 -20 -636 58 -559 292
-1062 681 -1463 377 -387 820 -620 1367 -717 152 -27 471 -37 637 -19 489 50
944 241 1326 556 100 82 291 280 366 379 223 293 383 634 458 975 45 205 51
273 51 535 0 317 -24 477 -111 747 -119 368 -305 675 -579 957 -375 385 -822
620 -1360 712 -138 24 -532 35 -670 18z m545 -323 c491 -66 932 -289 1270
-642 299 -313 484 -683 565 -1129 22 -123 31 -423 16 -566 -77 -741 -540
-1391 -1217 -1710 -431 -204 -937 -254 -1409 -140 -792 192 -1403 820 -1579
1621 -39 178 -49 301 -43 514 5 197 18 296 62 467 187 731 749 1308 1479 1518
113 33 226 57 331 70 113 14 410 12 525 -3z"/>
<path d="M2245 4451 c-660 -118 -1206 -553 -1455 -1158 -75 -181 -140 -452
-140 -580 l0 -43 105 0 c122 0 166 -14 189 -59 20 -38 20 -64 0 -102 -23 -46
-67 -59 -190 -59 l-107 0 7 -85 c3 -47 18 -139 31 -205 157 -741 743 -1327
1480 -1480 80 -17 238 -40 272 -40 10 0 13 28 13 110 0 127 13 171 59 194 38
20 64 20 102 0 46 -23 59 -67 59 -194 0 -89 3 -110 14 -110 53 0 264 35 361
60 671 173 1202 704 1375 1376 25 96 60 307 60 360 0 11 -21 14 -110 14 -127
0 -171 13 -194 59 -20 38 -20 64 0 102 23 46 67 59 194 59 82 0 110 3 110 13
0 34 -23 192 -40 272 -119 575 -511 1075 -1042 1330 -203 97 -448 166 -644
182 l-84 6 0 -107 c0 -70 -5 -118 -14 -141 -15 -35 -59 -65 -96 -65 -37 0 -81
30 -96 65 -9 22 -14 71 -14 140 l0 105 -52 -1 c-29 0 -98 -9 -153 -18z m1270
-887 c32 -15 65 -64 65 -98 0 -17 -585 -1193 -626 -1257 -23 -37 -61 -58 -645
-349 -683 -341 -673 -337 -730 -281 -57 57 -60 49 272 714 166 331 310 615
321 630 15 21 175 105 649 343 346 173 637 314 645 314 9 0 31 -7 49 -16z"/>
<path d="M2770 3000 l-435 -218 -218 -437 c-120 -241 -216 -439 -214 -442 3
-2 201 94 442 214 l437 218 219 437 c120 241 219 440 219 443 0 3 -3 5 -7 4
-5 0 -204 -98 -443 -219z m-165 -346 c66 -31 81 -116 29 -168 -34 -34 -75 -41
-117 -21 -65 31 -81 114 -32 165 24 25 38 32 78 39 5 0 24 -6 42 -15z"/>
</g>
</svg>
