<svg fill="none" height="40" viewBox="0 0 40 40" width="40" xmlns="http://www.w3.org/2000/svg">
    <g clip-path="url(#clip0)">
        <path d="M29.1403 -1.6001L24.7835 9.0767H15.7339L19.7563 -1.6001H29.1403Z" fill="#AB322F" />
        <path
            d="M25.1977 7.22559H15.3993C15.2462 7.22538 15.0946 7.25535 14.9531 7.31379C14.8116 7.37224 14.683 7.458 14.5746 7.56618C14.4663 7.67437 14.3804 7.80284 14.3217 7.94427C14.2631 8.08569 14.2329 8.23729 14.2329 8.39039V14.6304H26.3641V8.39039C26.3637 8.08132 26.2406 7.78505 26.0219 7.56665C25.8032 7.34826 25.5068 7.22559 25.1977 7.22559ZM25.5017 9.51199H14.8729V9.03199C14.8729 8.7829 14.9719 8.54401 15.148 8.36787C15.3241 8.19174 15.563 8.09279 15.8121 8.09279H24.5625C24.8116 8.09279 25.0505 8.19174 25.2266 8.36787C25.4028 8.54401 25.5017 8.7829 25.5017 9.03199V9.51199Z"
            fill="#F28F0E" />
        <path d="M11.521 -1.6001L15.7338 9.0767H24.7834L20.665 -1.6001H11.521Z" fill="#FA352C" />
        <path d="M17.8279 9.0767L13.2039 -1.6001H12.6807L17.3047 9.0767H17.8279Z" fill="#FCE0E0" />
        <path d="M19.7864 9.0767L15.1624 -1.6001H14.6392L19.2632 9.0767H19.7864Z" fill="#FCE0E0" />
        <path d="M21.9514 9.0767L17.3274 -1.6001H16.8042L21.4282 9.0767H21.9514Z" fill="#FCE0E0" />
        <path d="M23.865 9.0767L19.241 -1.6001H18.7178L23.3418 9.0767H23.865Z" fill="#FCE0E0" />
        <path
            d="M31.8051 29.8375C35.0537 23.3418 32.4213 15.4424 25.9256 12.1939C19.4298 8.94531 11.5305 11.5777 8.28196 18.0734C5.03339 24.5691 7.66573 32.4684 14.1615 35.717C20.6572 38.9656 28.5565 36.3332 31.8051 29.8375Z"
            fill="#FFB10F" />
        <path
            d="M30.6171 16.1328C32.4662 19.0032 33.1266 22.4802 32.4586 25.8286C31.7905 29.1771 29.8465 32.1345 27.0375 34.0756C24.2284 36.0166 20.7746 36.7892 17.4063 36.2298C14.038 35.6705 11.0192 33.8232 8.98828 31.0784C9.94304 32.5605 11.186 33.8354 12.6433 34.8275C14.1007 35.8197 15.7426 36.5086 17.4715 36.8536C19.2004 37.1985 20.981 37.1923 22.7074 36.8354C24.4339 36.4784 26.0709 35.778 27.5213 34.7758C28.9717 33.7736 30.2058 32.49 31.1502 31.0013C32.0947 29.5127 32.7302 27.8493 33.019 26.1102C33.3077 24.371 33.2439 22.5916 32.8313 20.8776C32.4187 19.1636 31.6657 17.55 30.6171 16.1328Z"
            fill="#FF930F" />
        <path
            d="M29.6357 28.7526C32.285 23.455 30.1382 17.0127 24.8406 14.3633C19.5431 11.7139 13.1008 13.8608 10.4514 19.1584C7.80203 24.4559 9.94884 30.8982 15.2464 33.5476C20.544 36.197 26.9863 34.0502 29.6357 28.7526Z"
            fill="#FFDC01" />
        <path
            d="M18.7323 31.2497C18.9973 31.4787 19.1832 31.7856 19.2635 32.1265C18.9092 32.1247 18.5643 32.0129 18.2763 31.8065C18.0113 31.5775 17.8254 31.2706 17.7451 30.9297C18.0993 30.9323 18.444 31.044 18.7323 31.2497Z"
            fill="#F0B000" />
        <path
            d="M18.2248 32.1055C18.565 32.0064 18.9273 32.0136 19.2632 32.1263C19.0717 32.4236 18.792 32.6535 18.4632 32.7839C18.1232 32.8839 17.7606 32.8766 17.4248 32.7631C17.6163 32.4658 17.896 32.2358 18.2248 32.1055Z"
            fill="#F0B000" />
        <path
            d="M17.0954 30.8048C17.3262 31.0683 17.4674 31.3983 17.4986 31.7472C17.1488 31.698 16.8229 31.5414 16.5658 31.2992C16.3349 31.0363 16.1937 30.7068 16.1626 30.3584C16.512 30.4078 16.8377 30.5637 17.0954 30.8048Z"
            fill="#F0B000" />
        <path
            d="M16.4731 31.5852C16.8233 31.5316 17.1815 31.5875 17.4987 31.7452C17.2687 32.0128 16.9612 32.2024 16.6187 32.2876C16.2691 32.3407 15.9115 32.2849 15.5947 32.1276C15.8242 31.8601 16.1312 31.6705 16.4731 31.5852Z"
            fill="#F0B000" />
        <path
            d="M15.8073 30.1678C15.9922 30.464 16.0785 30.8114 16.0537 31.1598C15.7195 31.0559 15.4256 30.8514 15.2121 30.5742C15.0269 30.2773 14.9407 29.9295 14.9656 29.5806C15.2998 29.6854 15.5936 29.8904 15.8073 30.1678Z"
            fill="#F0B000" />
        <path
            d="M15.068 30.8418C15.4218 30.8441 15.7661 30.9559 16.0536 31.1618C15.783 31.3916 15.4474 31.5314 15.0936 31.5618C14.7395 31.5593 14.3947 31.4476 14.1064 31.2418C14.3778 31.0121 14.7138 30.8723 15.068 30.8418Z"
            fill="#F0B000" />
        <path
            d="M14.6042 29.1981C14.712 29.5299 14.712 29.8872 14.6042 30.2189C14.2993 30.0381 14.0596 29.7653 13.9194 29.4397C13.8107 29.1082 13.8107 28.7505 13.9194 28.4189C14.2243 28.5998 14.4641 28.8726 14.6042 29.1981Z"
            fill="#F0B000" />
        <path
            d="M13.7209 29.6751C14.0631 29.7608 14.3701 29.9509 14.5993 30.219C14.2819 30.3762 13.9239 30.4321 13.5737 30.379C13.2313 30.2929 12.9243 30.1022 12.6953 29.8335C13.0127 29.6761 13.3709 29.6208 13.7209 29.6751Z"
            fill="#F0B000" />
        <path
            d="M13.6936 28.0737C13.7184 28.4223 13.6316 28.7698 13.4456 29.0657C13.1818 28.8318 13.013 28.5093 12.9711 28.1593C12.9293 27.8092 13.0172 27.456 13.2184 27.1665C13.4684 27.4113 13.6347 27.7288 13.6936 28.0737Z"
            fill="#F0B000" />
        <path
            d="M12.7207 28.3328C13.0353 28.4943 13.2911 28.7507 13.4519 29.0656C13.1065 29.1449 12.745 29.1158 12.4167 28.9824C12.1038 28.8208 11.85 28.5643 11.6919 28.2496C12.0353 28.1713 12.3944 28.2003 12.7207 28.3328Z"
            fill="#F0B000" />
        <path
            d="M12.9176 26.6593C12.8701 27.0062 12.7145 27.3292 12.4728 27.5825C12.2612 27.3002 12.1606 26.95 12.1901 26.5985C12.2196 26.2469 12.3771 25.9184 12.6328 25.6753C12.8293 25.9649 12.929 26.3094 12.9176 26.6593Z"
            fill="#F0B000" />
        <path
            d="M11.913 26.72C12.1856 26.9408 12.3816 27.242 12.4729 27.5808C12.1193 27.5909 11.7711 27.4915 11.4762 27.296C11.2032 27.0758 11.0067 26.7751 10.9146 26.4368C11.2685 26.4264 11.6171 26.5253 11.913 26.72Z"
            fill="#F0B000" />
        <path
            d="M12.5176 25.3088C12.4147 25.6443 12.2094 25.9392 11.9304 26.152C11.7828 25.8349 11.7402 25.479 11.8088 25.136C11.9114 24.8008 12.1168 24.5064 12.396 24.2944C12.5426 24.6112 12.5852 24.9663 12.5176 25.3088Z"
            fill="#F0B000" />
        <path
            d="M11.5142 25.216C11.7485 25.476 11.8941 25.8038 11.9302 26.152C11.5794 26.1068 11.2509 25.9549 10.9894 25.7168C10.7551 25.4565 10.6089 25.129 10.5718 24.7808C10.9234 24.8246 11.2528 24.9767 11.5142 25.216Z"
            fill="#F0B000" />
        <path
            d="M12.4745 23.8044C12.2906 24.1057 12.017 24.3418 11.6921 24.4796C11.628 24.1365 11.6745 23.7819 11.8249 23.4668C12.0072 23.1657 12.2791 22.929 12.6025 22.79C12.669 23.1332 12.6242 23.4886 12.4745 23.8044Z"
            fill="#F0B000" />
        <path
            d="M11.5321 23.4751C11.6903 23.7847 11.7463 24.1365 11.6921 24.4799C11.3657 24.3543 11.0863 24.1307 10.8921 23.8399C10.7288 23.5314 10.6682 23.1788 10.7193 22.8335C11.0506 22.9572 11.3348 23.1816 11.5321 23.4751Z"
            fill="#F0B000" />
        <path
            d="M12.7415 22.2881C12.4931 22.5394 12.1727 22.7071 11.8247 22.7681C11.8425 22.4169 11.972 22.0806 12.1943 21.8081C12.4438 21.5574 12.7645 21.3898 13.1127 21.3281C13.0945 21.6795 12.9645 22.0159 12.7415 22.2881Z"
            fill="#F0B000" />
        <path
            d="M11.8968 21.7456C11.9816 22.0843 11.9564 22.4413 11.8248 22.7648C11.5351 22.5662 11.3156 22.2812 11.1976 21.9504C11.1129 21.6116 11.1381 21.2547 11.2696 20.9312C11.5588 21.1302 11.7782 21.4151 11.8968 21.7456Z"
            fill="#F0B000" />
        <path
            d="M13.2919 21.0398C12.9917 21.2277 12.6408 21.3183 12.2871 21.299C12.3874 20.9627 12.5912 20.6665 12.8695 20.4526C13.1691 20.2648 13.5196 20.1743 13.8727 20.1934C13.7726 20.5295 13.5695 20.8256 13.2919 21.0398Z"
            fill="#F0B000" />
        <path
            d="M12.5943 20.3197C12.598 20.6694 12.4904 21.0112 12.2871 21.2957C12.0385 21.047 11.8896 20.7158 11.8683 20.3648C11.8471 20.0137 11.9551 19.667 12.1719 19.3901C12.4067 19.648 12.5545 19.9732 12.5943 20.3197Z"
            fill="#F0B000" />
        <path
            d="M13.9784 19.9101C13.6524 20.049 13.2915 20.0842 12.9448 20.0109C13.0986 19.6942 13.3475 19.4335 13.6568 19.2653C13.9823 19.1265 14.3428 19.0918 14.6888 19.1661C14.5356 19.4823 14.2872 19.7425 13.9784 19.9101Z"
            fill="#F0B000" />
        <path
            d="M13.4055 19.0941C13.3526 19.4407 13.1913 19.7617 12.9446 20.0109C12.7373 19.7257 12.6418 19.3743 12.6763 19.0234C12.7109 18.6724 12.8729 18.3463 13.1318 18.1069C13.325 18.3989 13.4208 18.7444 13.4055 19.0941Z"
            fill="#F0B000" />
        <path
            d="M21.6424 31.1774C21.3773 31.4068 21.1919 31.7144 21.1128 32.0558C21.4664 32.0531 21.8106 31.9414 22.0984 31.7358C22.3642 31.5068 22.5503 31.1992 22.6296 30.8574C22.2754 30.86 21.9307 30.9718 21.6424 31.1774Z"
            fill="#F0B000" />
        <path
            d="M22.1496 32.0349C21.8101 31.9348 21.448 31.9421 21.1128 32.0557C21.3039 32.3534 21.5838 32.5835 21.9128 32.7133C22.2528 32.8135 22.6155 32.8062 22.9512 32.6925C22.7598 32.3945 22.4793 32.1644 22.1496 32.0349Z"
            fill="#F0B000" />
        <path
            d="M23.0726 30.8048C22.8419 31.0683 22.7007 31.3983 22.6694 31.7472C23.0191 31.6977 23.345 31.5412 23.6022 31.2992C23.8331 31.0363 23.9743 30.7068 24.0054 30.3584C23.6559 30.4075 23.3301 30.5634 23.0726 30.8048Z"
            fill="#F0B000" />
        <path
            d="M23.692 31.5856C23.3423 31.5322 22.9847 31.5881 22.668 31.7456C22.8976 32.013 23.2045 32.2025 23.5464 32.288C23.8966 32.3413 24.2546 32.2854 24.572 32.128C24.3421 31.8602 24.0345 31.6706 23.692 31.5856Z"
            fill="#F0B000" />
        <path
            d="M24.3576 30.115C24.1724 30.4112 24.0861 30.7586 24.1112 31.107C24.4485 31.0044 24.7455 30.7991 24.9608 30.5198C25.1468 30.224 25.2332 29.8763 25.2072 29.5278C24.87 29.6309 24.5731 29.836 24.3576 30.115Z"
            fill="#F0B000" />
        <path
            d="M25.0985 30.7886C24.7444 30.7911 24.3996 30.9028 24.1113 31.1086C24.372 31.352 24.7113 31.4939 25.0677 31.5086C25.4241 31.5233 25.7739 31.4097 26.0537 31.1886C25.7843 30.9598 25.4506 30.8201 25.0985 30.7886Z"
            fill="#F0B000" />
        <path
            d="M25.5211 29.1698C25.4122 29.5019 25.4122 29.8601 25.5211 30.1922C25.8227 30.0117 26.0605 29.7415 26.2011 29.4194C26.3094 29.0872 26.3094 28.7292 26.2011 28.397C25.8995 28.5775 25.6618 28.8477 25.5211 29.1698Z"
            fill="#F0B000" />
        <path
            d="M26.4121 29.6462C26.0697 29.7324 25.7627 29.9231 25.5337 30.1918C25.8509 30.3497 26.2091 30.4055 26.5593 30.3518C26.9017 30.2665 27.2088 30.0763 27.4377 29.8078C27.1205 29.6499 26.7624 29.5934 26.4121 29.6462Z"
            fill="#F0B000" />
        <path
            d="M26.4794 27.9711C26.4573 28.3191 26.5457 28.6652 26.7322 28.9599C26.9964 28.7259 27.1655 28.4031 27.2074 28.0527C27.2493 27.7023 27.161 27.3487 26.9594 27.0591C26.707 27.3047 26.539 27.624 26.4794 27.9711Z"
            fill="#F0B000" />
        <path
            d="M27.4519 28.2306C27.1417 28.3927 26.89 28.6478 26.7319 28.9602C27.0774 29.0395 27.4388 29.0104 27.7671 28.877C28.0787 28.7141 28.3315 28.4579 28.4903 28.1442C28.1436 28.0651 27.7809 28.0953 27.4519 28.2306Z"
            fill="#F0B000" />
        <path
            d="M27.1673 26.6318C27.2148 26.9787 27.3704 27.3017 27.6121 27.555C27.8232 27.2728 27.9236 26.923 27.8941 26.5718C27.8646 26.2206 27.7073 25.8924 27.4521 25.6494C27.2562 25.9388 27.1565 26.2825 27.1673 26.6318Z"
            fill="#F0B000" />
        <path
            d="M28.172 26.696C27.899 26.9163 27.7025 27.2169 27.6104 27.5553C27.9643 27.5656 28.3129 27.4667 28.6087 27.272C28.8817 27.0518 29.0782 26.7512 29.1704 26.4128C28.8164 26.4025 28.4678 26.5014 28.172 26.696Z"
            fill="#F0B000" />
        <path
            d="M27.569 25.28C27.6712 25.6159 27.8766 25.9109 28.1562 26.1232C28.3037 25.8067 28.3463 25.4513 28.2778 25.1088C28.1756 24.773 27.9701 24.4779 27.6906 24.2656C27.5431 24.5822 27.5005 24.9376 27.569 25.28Z"
            fill="#F0B000" />
        <path
            d="M28.5718 25.1872C28.3375 25.4472 28.1918 25.775 28.1558 26.1232C28.5061 26.0779 28.834 25.9259 29.095 25.688C29.329 25.4277 29.4746 25.1 29.511 24.752C29.1604 24.7964 28.8323 24.9485 28.5718 25.1872Z"
            fill="#F0B000" />
        <path
            d="M27.6057 23.8269C27.7885 24.1276 28.0602 24.3641 28.3833 24.5037C28.4474 24.16 28.4009 23.8049 28.2505 23.4893C28.0676 23.1886 27.7959 22.9521 27.4729 22.8125C27.4087 23.1562 27.4552 23.5113 27.6057 23.8269Z"
            fill="#F0B000" />
        <path
            d="M28.5561 23.496C28.3929 23.8051 28.3323 24.1581 28.3833 24.504C28.7096 24.3782 28.989 24.1547 29.1833 23.864C29.3466 23.5549 29.4071 23.2018 29.3561 22.856C29.0298 22.9817 28.7504 23.2053 28.5561 23.496Z"
            fill="#F0B000" />
        <path
            d="M27.3238 22.3086C27.5728 22.56 27.8937 22.7278 28.2422 22.7886C28.2234 22.4374 28.0934 22.1012 27.871 21.8286C27.6218 21.5777 27.301 21.41 26.9526 21.3486C26.9719 21.6998 27.1019 22.0358 27.3238 22.3086Z"
            fill="#F0B000" />
        <path
            d="M28.172 21.7597C28.0872 22.0986 28.113 22.4557 28.2456 22.7789C28.5348 22.5799 28.7542 22.295 28.8728 21.9645C28.9564 21.6255 28.9307 21.2688 28.7992 20.9453C28.5104 21.1448 28.2911 21.4295 28.172 21.7597Z"
            fill="#F0B000" />
        <path
            d="M26.7898 21.0816C27.09 21.2695 27.4409 21.36 27.7946 21.3408C27.6943 21.0045 27.4905 20.7083 27.2122 20.4944C26.9122 20.3074 26.562 20.217 26.209 20.2352C26.309 20.5713 26.5122 20.8674 26.7898 21.0816Z"
            fill="#F0B000" />
        <path
            d="M27.4874 20.3644C27.4838 20.7141 27.5913 21.0559 27.7946 21.3404C28.0441 21.0915 28.1936 20.7597 28.2148 20.4079C28.236 20.0561 28.1275 19.7088 27.9098 19.4316C27.6744 19.6904 27.5265 20.0168 27.4874 20.3644Z"
            fill="#F0B000" />
        <path
            d="M26.0634 19.9616C26.3897 20.0995 26.7505 20.1342 27.097 20.0608C26.9434 19.7444 26.6944 19.4842 26.385 19.3168C26.0596 19.1779 25.6992 19.1428 25.353 19.216C25.5059 19.5328 25.7544 19.7936 26.0634 19.9616Z"
            fill="#F0B000" />
        <path
            d="M26.6363 19.1455C26.6902 19.4914 26.8514 19.8115 27.0971 20.0607C27.3037 19.7748 27.3981 19.4229 27.3624 19.0719C27.3267 18.721 27.1634 18.3953 26.9035 18.1567C26.7124 18.4499 26.6189 18.796 26.6363 19.1455Z"
            fill="#F0B000" />
        <path
            d="M25.6758 18.3486C25.6522 18.3726 25.6271 18.395 25.6006 18.4158L25.575 18.4334C26.4276 19.1437 27.1148 20.0316 27.5885 21.0351C28.0622 22.0385 28.3109 23.1334 28.3174 24.243C28.3174 28.563 24.6006 32.0686 20.031 32.0686C15.4614 32.0686 11.7462 28.5582 11.7462 24.243C11.7517 23.1827 11.979 22.1352 12.4135 21.168C12.8481 20.2008 13.4803 19.3353 14.2694 18.627C14.2231 18.6136 14.1781 18.596 14.135 18.5742C13.3451 19.2931 12.713 20.1681 12.2787 21.1439C11.8444 22.1197 11.6173 23.175 11.6118 24.243C11.6118 28.627 15.3894 32.195 20.031 32.195C24.6726 32.195 28.4502 28.627 28.4502 24.243C28.4434 23.118 28.1917 22.008 27.7126 20.9901C27.2334 19.9722 26.5384 19.0708 25.6758 18.3486Z"
            fill="#F0B000" />
        <path
            d="M15.0936 18.9119C14.7441 18.9693 14.3853 18.9173 14.0664 18.7631C14.2932 18.4925 14.5985 18.2991 14.94 18.2095C15.2897 18.1532 15.6483 18.2057 15.9672 18.3599C15.7405 18.6303 15.4351 18.8233 15.0936 18.9119Z"
            fill="#F0B000" />
        <path
            d="M14.7321 17.984C14.5952 18.3076 14.3602 18.5802 14.0601 18.7632C13.9467 18.4326 13.9416 18.0744 14.0457 17.7408C14.1855 17.414 14.426 17.1405 14.7321 16.96C14.8415 17.2925 14.8415 17.6514 14.7321 17.984Z"
            fill="#F0B000" />
        <path
            d="M25.0054 18.9119C25.355 18.9693 25.7137 18.9173 26.0326 18.7631C25.8058 18.4925 25.5006 18.2991 25.159 18.2095C24.8093 18.1532 24.4507 18.2057 24.1318 18.3599C24.3585 18.6303 24.6639 18.8233 25.0054 18.9119Z"
            fill="#F0B000" />
        <path
            d="M25.3596 17.984C25.4974 18.3076 25.7329 18.58 26.0332 18.7632C26.1644 18.4343 26.1699 18.0687 26.0486 17.736C25.9273 17.4034 25.6877 17.1271 25.3756 16.96C25.2614 17.2909 25.2558 17.6496 25.3596 17.984Z"
            fill="#F0B000" />
        <path
            d="M19.5752 19.248H21.4248V28.16H19.2552V21.6496L17.5992 22.7776L16.5464 21.2352L19.5752 19.248Z"
            fill="#F0B000" />
    </g>
    <defs>
        <clipPath id="clip0">
            <rect fill="white" height="40" width="40" />
        </clipPath>
    </defs>
</svg>
