<svg fill="none" height="40" viewBox="0 0 40 40" width="40" xmlns="http://www.w3.org/2000/svg">
    <g clip-path="url(#clip0)">
        <path d="M29.1247 -0.160156L24.7679 10.5166H15.7183L19.7407 -0.160156H29.1247Z"
            fill="#892020" />
        <path
            d="M25.1821 8.66553H15.3837C15.0746 8.66553 14.7782 8.7882 14.5595 9.00659C14.3408 9.22499 14.2177 9.52126 14.2173 9.83033V16.0703H26.3485V9.83033C26.3481 9.52126 26.225 9.22499 26.0063 9.00659C25.7876 8.7882 25.4912 8.66553 25.1821 8.66553ZM25.4861 10.9519H14.8573V10.4719C14.8573 10.2228 14.9562 9.98395 15.1324 9.80781C15.3085 9.63168 15.5474 9.53273 15.7965 9.53273H24.5469C24.796 9.53273 25.0349 9.63168 25.211 9.80781C25.3871 9.98395 25.4861 10.2228 25.4861 10.4719V10.9519Z"
            fill="#6B7384" />
        <path d="M11.5054 -0.160156L15.7182 10.5166H24.7678L20.6494 -0.160156H11.5054Z"
            fill="#FA352C" />
        <path d="M17.3854 10.5166L13.0862 -0.160156H12.395L16.6958 10.5166H17.3854Z"
            fill="#FF740D" />
        <path d="M19.4963 10.5166L15.1955 -0.160156H14.5059L18.8067 10.5166H19.4963Z"
            fill="#FF740D" />
        <path d="M21.528 10.5166L17.2288 -0.160156H16.5376L20.8384 10.5166H21.528Z"
            fill="#FF740D" />
        <path d="M23.7135 10.5166L19.4127 -0.160156H18.7231L23.0239 10.5166H23.7135Z"
            fill="#FF740D" />
        <path
            d="M33.0675 27.1046C34.0117 19.9035 28.9395 13.3004 21.7384 12.3562C14.5372 11.412 7.93413 16.4842 6.98992 23.6853C6.04571 30.8865 11.1179 37.4896 18.3191 38.4338C25.5202 39.378 32.1233 34.3057 33.0675 27.1046Z"
            fill="#798093" />
        <path
            d="M20.027 12.241C19.8969 12.241 19.7673 12.241 19.6382 12.241C23.0536 12.3476 26.2935 13.7793 28.6717 16.233C31.05 18.6866 32.3799 21.9696 32.3799 25.3866C32.3799 28.8037 31.05 32.0867 28.6717 34.5403C26.2935 36.994 23.0536 38.4257 19.6382 38.5322H20.027C23.5147 38.5322 26.8595 37.1468 29.3257 34.6806C31.7919 32.2144 33.1774 28.8695 33.1774 25.3818C33.1774 21.8941 31.7919 18.5493 29.3257 16.0831C26.8595 13.6169 23.5147 12.2314 20.027 12.2314V12.241Z"
            fill="#6B7384" />
        <path
            d="M30.6624 26.7896C31.4324 20.9167 27.2957 15.5316 21.4229 14.7615C15.55 13.9915 10.1648 18.1281 9.39479 24.001C8.62474 29.8739 12.7614 35.259 18.6343 36.0291C24.5071 36.7991 29.8923 32.6625 30.6624 26.7896Z"
            fill="#9EA8BA" />
        <path
            d="M19.6915 27.2654H22.9731V28.8878H17.0835V27.2158C18.1139 26.331 20.6771 24.1918 20.6771 22.8526C20.6771 22.1742 20.2323 21.7102 19.4947 21.7102C18.7571 21.7102 18.0099 22.0046 17.3555 22.339L17.2979 20.5502C21.7443 18.7902 24.1971 21.6014 22.0979 24.699C21.5912 25.45 20.7891 26.3054 19.6915 27.2654Z"
            fill="#CAD5E5" />
        <path
            d="M18.7167 32.8478C18.9817 33.0768 19.1676 33.3837 19.2479 33.7246C18.8936 33.7229 18.5486 33.6111 18.2607 33.4046C17.9957 33.1756 17.8098 32.8688 17.7295 32.5278C18.0838 32.5296 18.4288 32.6414 18.7167 32.8478Z"
            fill="#BAC6D8" />
        <path
            d="M18.2097 33.7036C18.5498 33.6045 18.9122 33.6118 19.2481 33.7244C19.0566 34.0217 18.7768 34.2517 18.4481 34.382C18.108 34.4821 17.7454 34.4748 17.4097 34.3612C17.6012 34.0639 17.8809 33.834 18.2097 33.7036Z"
            fill="#BAC6D8" />
        <path
            d="M17.0798 32.4029C17.3106 32.6665 17.4517 32.9964 17.483 33.3453C17.1332 33.2961 16.8073 33.1396 16.5502 32.8973C16.3195 32.6344 16.1783 32.3049 16.147 31.9565C16.4964 32.0059 16.8221 32.1618 17.0798 32.4029Z"
            fill="#BAC6D8" />
        <path
            d="M16.4575 33.1838C16.8077 33.1303 17.1659 33.1862 17.4831 33.3438C17.2535 33.6112 16.9466 33.8007 16.6047 33.8862C16.2545 33.9395 15.8964 33.8836 15.5791 33.7262C15.8086 33.4587 16.1155 33.2692 16.4575 33.1838Z"
            fill="#BAC6D8" />
        <path
            d="M15.7916 31.7659C15.9766 32.0622 16.0629 32.4095 16.038 32.7579C15.7039 32.654 15.41 32.4495 15.1964 32.1723C15.0113 31.8755 14.925 31.5276 14.95 31.1787C15.2841 31.2835 15.578 31.4885 15.7916 31.7659Z"
            fill="#BAC6D8" />
        <path
            d="M15.0528 32.4399C15.4065 32.4422 15.7508 32.554 16.0384 32.7599C15.7677 32.9898 15.4322 33.1296 15.0784 33.1599C14.7247 33.1577 14.3804 33.0459 14.0928 32.8399C14.3634 32.6101 14.699 32.4703 15.0528 32.4399Z"
            fill="#BAC6D8" />
        <path
            d="M14.5884 30.7966C14.6962 31.1284 14.6962 31.4857 14.5884 31.8174C14.2838 31.637 14.0441 31.3648 13.9036 31.0398C13.7958 30.7081 13.7958 30.3508 13.9036 30.019C14.2083 30.1994 14.448 30.4716 14.5884 30.7966Z"
            fill="#BAC6D8" />
        <path
            d="M13.7053 31.2732C14.0475 31.359 14.3545 31.5491 14.5837 31.8172C14.2663 31.9744 13.9083 32.0302 13.5581 31.9772C13.2157 31.891 12.9087 31.7003 12.6797 31.4316C12.997 31.2743 13.3553 31.2189 13.7053 31.2732Z"
            fill="#BAC6D8" />
        <path
            d="M13.6782 29.672C13.703 30.0206 13.6161 30.3681 13.4302 30.664C13.166 30.43 12.9969 30.1072 12.955 29.7568C12.9131 29.4064 13.0014 29.0528 13.203 28.7632C13.4529 29.0087 13.6191 29.3267 13.6782 29.672Z"
            fill="#BAC6D8" />
        <path
            d="M12.7056 29.931C13.0202 30.0924 13.276 30.3488 13.4368 30.6638C13.0913 30.743 12.7299 30.714 12.4016 30.5806C12.0886 30.419 11.8349 30.1624 11.6768 29.8477C12.0201 29.7694 12.3793 29.7984 12.7056 29.931Z"
            fill="#BAC6D8" />
        <path
            d="M12.9022 28.2558C12.8548 28.6027 12.6991 28.9258 12.4574 29.179C12.2463 28.8969 12.146 28.547 12.1755 28.1958C12.2049 27.8446 12.3622 27.5165 12.6174 27.2734C12.8141 27.5625 12.9138 27.9065 12.9022 28.2558Z"
            fill="#BAC6D8" />
        <path
            d="M11.8978 28.3196C12.1705 28.5397 12.3666 28.8404 12.4578 29.1788C12.1042 29.1899 11.7559 29.091 11.461 28.8956C11.1881 28.6754 10.9916 28.3747 10.8994 28.0364C11.2534 28.026 11.602 28.1249 11.8978 28.3196Z"
            fill="#BAC6D8" />
        <path
            d="M12.502 26.907C12.3991 27.2425 12.1938 27.5373 11.9148 27.7502C11.7671 27.4331 11.7245 27.0772 11.7932 26.7342C11.8958 26.399 12.1012 26.1045 12.3804 25.8926C12.527 26.2094 12.5696 26.5645 12.502 26.907Z"
            fill="#BAC6D8" />
        <path
            d="M11.499 26.8126C11.7333 27.0734 11.8789 27.4016 11.915 27.7502C11.5642 27.7051 11.2358 27.5531 10.9742 27.315C10.7397 27.0543 10.5936 26.7262 10.5566 26.3774C10.9081 26.4221 11.2372 26.5741 11.499 26.8126Z"
            fill="#BAC6D8" />
        <path
            d="M12.4591 25.4029C12.2756 25.7049 12.0019 25.9416 11.6767 26.0797C11.6117 25.7368 11.6576 25.382 11.8079 25.0669C11.9902 24.7658 12.2621 24.5291 12.5855 24.3901C12.6522 24.7326 12.6079 25.0874 12.4591 25.4029Z"
            fill="#BAC6D8" />
        <path
            d="M11.5164 25.0736C11.6744 25.3838 11.7304 25.736 11.6764 26.08C11.3501 25.9544 11.0706 25.7308 10.8764 25.44C10.7141 25.1312 10.6536 24.7789 10.7036 24.4336C11.0347 24.5569 11.3189 24.7807 11.5164 25.0736Z"
            fill="#BAC6D8" />
        <path
            d="M12.7264 23.8863C12.478 24.1375 12.1576 24.3053 11.8096 24.3663C11.8274 24.0151 11.9569 23.6788 12.1792 23.4063C12.4286 23.1556 12.7493 22.988 13.0976 22.9263C13.0792 23.2776 12.9491 23.6139 12.7264 23.8863Z"
            fill="#BAC6D8" />
        <path
            d="M11.8817 23.3437C11.9665 23.6825 11.9412 24.0394 11.8097 24.3629C11.52 24.1643 11.3004 23.8793 11.1825 23.5485C11.0978 23.2097 11.123 22.8528 11.2545 22.5293C11.5437 22.7283 11.7631 23.0132 11.8817 23.3437Z"
            fill="#BAC6D8" />
        <path
            d="M13.2768 22.6385C12.9766 22.8264 12.6256 22.9169 12.272 22.8977C12.3723 22.5613 12.5761 22.2651 12.8544 22.0513C13.154 21.8634 13.5044 21.7729 13.8576 21.7921C13.7575 22.1281 13.5543 22.4242 13.2768 22.6385Z"
            fill="#BAC6D8" />
        <path
            d="M12.5794 21.9195C12.583 22.2692 12.4755 22.6109 12.2722 22.8955C12.0232 22.6466 11.8739 22.3152 11.8527 21.9637C11.8315 21.6123 11.9397 21.2653 12.157 20.9883C12.3925 21.2464 12.5404 21.5723 12.5794 21.9195Z"
            fill="#BAC6D8" />
        <path
            d="M13.9633 21.5087C13.6373 21.6476 13.2764 21.6828 12.9297 21.6096C13.0835 21.2928 13.3324 21.0321 13.6417 20.8639C13.9672 20.7251 14.3277 20.6905 14.6737 20.7647C14.5205 21.0809 14.2721 21.3411 13.9633 21.5087Z"
            fill="#BAC6D8" />
        <path
            d="M13.3903 20.6923C13.3374 21.0389 13.1761 21.3598 12.9295 21.6091C12.7222 21.3238 12.6267 20.9724 12.6612 20.6215C12.6957 20.2706 12.8578 19.9445 13.1167 19.7051C13.3099 19.997 13.4056 20.3426 13.3903 20.6923Z"
            fill="#BAC6D8" />
        <path
            d="M21.6273 32.7756C21.3622 33.0049 21.1768 33.3125 21.0977 33.654C21.4518 33.6512 21.7964 33.5394 22.0849 33.334C22.3499 33.1046 22.5353 32.797 22.6144 32.4556C22.2603 32.4582 21.9156 32.5699 21.6273 32.7756Z"
            fill="#BAC6D8" />
        <path
            d="M22.1345 33.6336C21.795 33.5335 21.4328 33.5407 21.0977 33.6544C21.2888 33.9521 21.5686 34.1821 21.8977 34.312C22.2378 34.4112 22.6002 34.4039 22.9361 34.2912C22.7446 33.9932 22.4641 33.7631 22.1345 33.6336Z"
            fill="#BAC6D8" />
        <path
            d="M23.0575 32.4029C22.8267 32.6665 22.6855 32.9964 22.6543 33.3453C23.004 33.2958 23.3298 33.1393 23.5871 32.8973C23.8178 32.6344 23.9589 32.3049 23.9903 31.9565C23.6408 32.0056 23.315 32.1615 23.0575 32.4029Z"
            fill="#BAC6D8" />
        <path
            d="M23.6768 33.1838C23.3272 33.1303 22.9695 33.1862 22.6528 33.3438C22.8824 33.6111 23.1893 33.8006 23.5312 33.8862C23.8814 33.9394 24.2395 33.8835 24.5568 33.7262C24.3269 33.4584 24.0194 33.2688 23.6768 33.1838Z"
            fill="#BAC6D8" />
        <path
            d="M24.3424 31.7132C24.1573 32.0094 24.071 32.3568 24.0961 32.7052C24.4334 32.6025 24.7304 32.3973 24.9456 32.118C25.1316 31.8221 25.2179 31.4745 25.192 31.126C24.8549 31.229 24.558 31.4342 24.3424 31.7132Z"
            fill="#BAC6D8" />
        <path
            d="M25.0834 32.3872C24.7292 32.3897 24.3845 32.5014 24.0962 32.7072C24.3569 32.9506 24.6962 33.0926 25.0526 33.1073C25.4089 33.1219 25.7588 33.0084 26.0386 32.7872C25.7691 32.5585 25.4354 32.4187 25.0834 32.3872Z"
            fill="#BAC6D8" />
        <path
            d="M25.5059 30.7674C25.3971 31.0995 25.3971 31.4577 25.5059 31.7898C25.808 31.6099 26.0459 31.3396 26.1859 31.017C26.2942 30.6848 26.2942 30.3268 26.1859 29.9946C25.8843 30.1751 25.6466 30.4453 25.5059 30.7674Z"
            fill="#BAC6D8" />
        <path
            d="M26.397 31.2448C26.0548 31.3316 25.748 31.5222 25.5186 31.7904C25.8358 31.9481 26.194 32.004 26.5442 31.9504C26.8865 31.8651 27.1937 31.6749 27.4226 31.4064C27.1054 31.2485 26.7473 31.1921 26.397 31.2448Z"
            fill="#BAC6D8" />
        <path
            d="M26.4639 29.5694C26.4413 29.918 26.5298 30.2648 26.7167 30.5598C26.9805 30.326 27.1493 30.0035 27.1912 29.6534C27.2331 29.3034 27.1451 28.9501 26.9439 28.6606C26.6921 28.9054 26.5241 29.2235 26.4639 29.5694Z"
            fill="#BAC6D8" />
        <path
            d="M27.4363 29.8286C27.1259 29.9912 26.8741 30.2469 26.7163 30.5598C27.0615 30.6401 27.4231 30.6116 27.7515 30.4782C28.0631 30.3153 28.3159 30.0591 28.4747 29.7454C28.1283 29.6654 27.7656 29.6944 27.4363 29.8286Z"
            fill="#BAC6D8" />
        <path
            d="M27.1522 28.2304C27.1996 28.5773 27.3553 28.9004 27.597 29.1536C27.8081 28.8715 27.9084 28.5217 27.8789 28.1705C27.8495 27.8193 27.6922 27.4911 27.437 27.248C27.241 27.5374 27.1414 27.8812 27.1522 28.2304Z"
            fill="#BAC6D8" />
        <path
            d="M28.1568 28.2942C27.8839 28.5144 27.6874 28.8151 27.5952 29.1534C27.9492 29.1637 28.2978 29.0648 28.5936 28.8702C28.8665 28.65 29.063 28.3493 29.1552 28.011C28.8012 28.0007 28.4527 28.0995 28.1568 28.2942Z"
            fill="#BAC6D8" />
        <path
            d="M27.5534 26.8796C27.6555 27.2155 27.861 27.5105 28.1406 27.7228C28.2881 27.4063 28.3307 27.0509 28.2622 26.7084C28.16 26.3726 27.9545 26.0775 27.675 25.8652C27.5274 26.1818 27.4848 26.5372 27.5534 26.8796Z"
            fill="#BAC6D8" />
        <path
            d="M28.5566 26.7853C28.3223 27.0454 28.1767 27.3731 28.1406 27.7213C28.4909 27.676 28.8188 27.5241 29.0798 27.2861C29.3138 27.0258 29.4594 26.6982 29.4958 26.3501C29.1453 26.3946 28.8172 26.5466 28.5566 26.7853Z"
            fill="#BAC6D8" />
        <path
            d="M27.59 25.4255C27.7729 25.7262 28.0446 25.9627 28.3676 26.1023C28.4318 25.7587 28.3853 25.4035 28.2348 25.0879C28.052 24.7873 27.7803 24.5508 27.4572 24.4111C27.3931 24.7548 27.4396 25.11 27.59 25.4255Z"
            fill="#BAC6D8" />
        <path
            d="M28.5405 25.0946C28.3772 25.4037 28.3167 25.7568 28.3677 26.1026C28.694 25.9768 28.9734 25.7533 29.1677 25.4626C29.331 25.1535 29.3915 24.8004 29.3405 24.4546C29.0139 24.5797 28.7343 24.8034 28.5405 25.0946Z"
            fill="#BAC6D8" />
        <path
            d="M27.3087 23.9053C27.5576 24.1567 27.8786 24.3244 28.2271 24.3853C28.2083 24.0341 28.0783 23.6979 27.8559 23.4253C27.6066 23.1744 27.2858 23.0067 26.9375 22.9453C26.9563 23.2966 27.0863 23.6328 27.3087 23.9053Z"
            fill="#BAC6D8" />
        <path
            d="M28.1569 23.3598C28.0721 23.6987 28.0979 24.0558 28.2305 24.379C28.5197 24.18 28.7391 23.8951 28.8577 23.5646C28.9413 23.2256 28.9155 22.8689 28.7841 22.5454C28.4953 22.7449 28.276 23.0296 28.1569 23.3598Z"
            fill="#BAC6D8" />
        <path
            d="M26.7742 22.68C27.0744 22.8679 27.4253 22.9584 27.779 22.9392C27.6787 22.6028 27.4749 22.3067 27.1966 22.0928C26.8969 21.9049 26.5465 21.8144 26.1934 21.8336C26.2934 22.1696 26.4966 22.4657 26.7742 22.68Z"
            fill="#BAC6D8" />
        <path
            d="M27.4718 21.9631C27.4681 22.3127 27.5757 22.6545 27.779 22.9391C28.0284 22.6901 28.1779 22.3583 28.1992 22.0066C28.2204 21.6548 28.1119 21.3074 27.8942 21.0303C27.6584 21.2888 27.5105 21.6153 27.4718 21.9631Z"
            fill="#BAC6D8" />
        <path
            d="M26.0478 21.5584C26.3738 21.6973 26.7347 21.7325 27.0814 21.6592C26.9279 21.3429 26.6796 21.0823 26.371 20.9136C26.0447 20.7757 25.684 20.7411 25.3374 20.8144C25.4901 21.1309 25.7387 21.3912 26.0478 21.5584Z"
            fill="#BAC6D8" />
        <path
            d="M26.6207 20.7421C26.6743 21.0885 26.8355 21.4092 27.0815 21.6589C27.288 21.3729 27.3824 21.021 27.3467 20.6701C27.311 20.3191 27.1478 19.9934 26.8879 19.7549C26.697 20.0476 26.6035 20.3931 26.6207 20.7421Z"
            fill="#BAC6D8" />
        <path
            d="M25.6606 19.9473C25.6369 19.9712 25.6118 19.9937 25.5854 20.0145L25.5597 20.0305C26.4122 20.7412 27.0993 21.6294 27.5729 22.6331C28.0466 23.6368 28.2955 24.7318 28.3022 25.8417C28.3022 30.1617 24.5854 33.6673 20.0157 33.6673C15.4461 33.6673 11.7309 30.1569 11.7309 25.8417C11.7362 24.7813 11.9634 23.7338 12.398 22.7665C12.8326 21.7993 13.4648 20.9338 14.2541 20.2257C14.2078 20.2123 14.1628 20.1946 14.1197 20.1729C13.33 20.8918 12.6982 21.7669 12.2641 22.7427C11.8301 23.7185 11.6033 24.7737 11.5981 25.8417C11.5981 30.2257 15.3741 33.7937 20.0157 33.7937C24.6574 33.7937 28.435 30.2257 28.435 25.8417C28.4286 24.7166 28.177 23.6064 27.6979 22.5885C27.2187 21.5705 26.5235 20.6692 25.6606 19.9473Z"
            fill="#BAC6D8" />
        <path
            d="M15.0785 20.51C14.7288 20.5673 14.3699 20.5148 14.0513 20.3596C14.2785 20.0898 14.5836 19.897 14.9249 19.8076C15.2746 19.7513 15.6332 19.8038 15.9521 19.958C15.7254 20.2284 15.42 20.4214 15.0785 20.51Z"
            fill="#BAC6D8" />
        <path
            d="M14.717 19.5825C14.5803 19.9059 14.3452 20.178 14.045 20.3601C13.9316 20.03 13.9265 19.6724 14.0306 19.3393C14.1712 19.0135 14.4115 18.7407 14.717 18.5601C14.8257 18.8922 14.8257 19.2503 14.717 19.5825Z"
            fill="#BAC6D8" />
        <path
            d="M24.9903 20.51C25.34 20.5673 25.6989 20.5148 26.0175 20.3596C25.7903 20.0898 25.4851 19.897 25.1439 19.8076C24.7942 19.7513 24.4356 19.8038 24.1167 19.958C24.3434 20.2284 24.6488 20.4214 24.9903 20.51Z"
            fill="#BAC6D8" />
        <path
            d="M25.3438 19.5825C25.4814 19.9058 25.7171 20.1778 26.0175 20.3601C26.1308 20.03 26.1359 19.6724 26.0319 19.3393C25.895 19.0156 25.6599 18.743 25.3598 18.5601C25.2465 18.8906 25.2409 19.2486 25.3438 19.5825Z"
            fill="#BAC6D8" />
    </g>
    <defs>
        <clipPath id="clip0">
            <rect fill="white" height="40" width="40" />
        </clipPath>
    </defs>
</svg>
