<svg fill="none" height="40" viewBox="0 0 40 40" width="40" xmlns="http://www.w3.org/2000/svg">
    <g clip-path="url(#clip0)">
        <path d="M29.1442 -0.319824L24.7874 10.357H15.7378L19.7602 -0.319824H29.1442Z"
            fill="#8E2323" />
        <path
            d="M25.202 8.50586H15.4036C15.0946 8.50586 14.7984 8.62858 14.5799 8.84702C14.3615 9.06547 14.2388 9.36174 14.2388 9.67066V15.9107H26.3684V9.67066C26.3684 9.51756 26.3382 9.36597 26.2796 9.22454C26.2209 9.08312 26.135 8.95464 26.0266 8.84646C25.9183 8.73827 25.7897 8.65251 25.6482 8.59407C25.5067 8.53562 25.3551 8.50565 25.202 8.50586ZM25.506 10.7923H14.8772V10.3123C14.8772 10.0632 14.9761 9.82428 15.1523 9.64815C15.3284 9.47201 15.5673 9.37306 15.8164 9.37306H24.5668C24.8159 9.37306 25.0548 9.47201 25.2309 9.64815C25.407 9.82428 25.506 10.0632 25.506 10.3123V10.7923Z"
            fill="#C95506" />
        <path d="M11.5249 -0.319824L15.7377 10.357H24.7873L20.6689 -0.319824H11.5249Z"
            fill="#FA352C" />
        <path d="M17.7425 10.357L13.2081 -0.319824H12.6865L17.2209 10.357H17.7425Z"
            fill="#7F0B0B" />
        <path d="M19.4046 10.357L14.8702 -0.319824H14.3486L18.883 10.357H19.4046Z" fill="#7F0B0B" />
        <path d="M21.3011 10.357L16.7667 -0.319824H16.2451L20.7795 10.357H21.3011Z"
            fill="#7F0B0B" />
        <path d="M23.1249 10.357L18.5904 -0.319824H18.0688L22.6033 10.357H23.1249Z"
            fill="#7F0B0B" />
        <path
            d="M33.028 27.341C34.1917 20.172 29.3235 13.4171 22.1545 12.2534C14.9856 11.0898 8.23068 15.958 7.06699 23.1269C5.90331 30.2959 10.7715 37.0508 17.9405 38.2145C25.1094 39.3781 31.8643 34.5099 33.028 27.341Z"
            fill="#FFDC5A" />
        <path
            d="M29.1358 15.7314C31.5035 18.2165 32.8058 21.5289 32.7644 24.9611C32.7231 28.3933 31.3414 31.6733 28.9145 34.1006C26.4876 36.5279 23.2079 37.9102 19.7757 37.9521C16.3435 37.994 13.0309 36.6923 10.5454 34.325C11.7552 35.5948 13.2067 36.6097 14.8146 37.3101C16.4224 38.0105 18.1542 38.3821 19.9078 38.4033C21.6615 38.4244 23.4017 38.0945 25.0259 37.4331C26.6502 36.7716 28.1258 35.792 29.3658 34.5518C30.6058 33.3115 31.5852 31.8358 32.2463 30.2114C32.9075 28.587 33.2371 26.8468 33.2156 25.0932C33.1942 23.3395 32.8222 21.6078 32.1216 20.0001C31.4209 18.3924 30.4058 16.941 29.1358 15.7314Z"
            fill="#EA7603" />
        <path
            d="M30.634 26.9521C31.5831 21.1055 27.6128 15.5965 21.7662 14.6475C15.9196 13.6984 10.4106 17.6687 9.46155 23.5153C8.51251 29.3619 12.4828 34.8709 18.3294 35.82C24.176 36.769 29.685 32.7987 30.634 26.9521Z"
            fill="#FF9B50" />
        <g style="mix-blend-mode:screen" opacity="0.69">
            <g style="mix-blend-mode:screen" opacity="0.69">
                <path
                    d="M18.9926 32.813C19.2573 33.0427 19.4426 33.3501 19.5222 33.6914C19.1685 33.6887 18.8243 33.577 18.5366 33.3714C18.271 33.1429 18.0849 32.8359 18.0054 32.4946C18.3594 32.4964 18.7042 32.6076 18.9926 32.813Z"
                    fill="#FFB448" />
            </g>
            <g style="mix-blend-mode:screen" opacity="0.69">
                <path
                    d="M18.4852 33.6702C18.8247 33.5701 19.1868 33.5774 19.522 33.691C19.3309 33.9887 19.051 34.2187 18.722 34.3486C18.382 34.4487 18.0193 34.4415 17.6836 34.3278C17.875 34.0298 18.1555 33.7997 18.4852 33.6702Z"
                    fill="#FFB448" />
            </g>
            <g style="mix-blend-mode:screen" opacity="0.69">
                <path
                    d="M17.3558 32.3697C17.5858 32.6337 17.7269 32.9635 17.759 33.3121C17.4088 33.2628 17.0824 33.1063 16.8246 32.8641C16.5947 32.6007 16.4536 32.2715 16.4214 31.9233C16.7713 31.9725 17.0976 32.1284 17.3558 32.3697Z"
                    fill="#FFB448" />
            </g>
            <g style="mix-blend-mode:screen" opacity="0.69">
                <path
                    d="M16.733 33.1506C17.0832 33.0971 17.4414 33.153 17.7586 33.3106C17.5286 33.5783 17.2211 33.7678 16.8786 33.853C16.5284 33.9066 16.1703 33.8507 15.853 33.693C16.0831 33.4254 16.3906 33.2358 16.733 33.1506Z"
                    fill="#FFB448" />
            </g>
            <g style="mix-blend-mode:screen" opacity="0.69">
                <path
                    d="M16.0677 31.7327C16.2527 32.029 16.339 32.3763 16.3141 32.7247C15.9768 32.6221 15.6798 32.4168 15.4645 32.1375C15.2793 31.8413 15.193 31.4939 15.2181 31.1455C15.5555 31.2482 15.8525 31.4534 16.0677 31.7327Z"
                    fill="#FFB448" />
            </g>
            <g style="mix-blend-mode:screen" opacity="0.69">
                <path
                    d="M15.3267 32.4062C15.6809 32.4083 16.0258 32.5201 16.3139 32.7263C16.0432 32.9561 15.7077 33.0959 15.3539 33.1263C14.9997 33.1238 14.655 33.012 14.3667 32.8063C14.6374 32.5764 14.9729 32.4366 15.3267 32.4062Z"
                    fill="#FFB448" />
            </g>
            <g style="mix-blend-mode:screen" opacity="0.69">
                <path
                    d="M14.8644 30.763C14.9727 31.0947 14.9727 31.4522 14.8644 31.7838C14.563 31.6036 14.3257 31.3333 14.186 31.011C14.0773 30.6795 14.0773 30.3218 14.186 29.9902C14.4871 30.1709 14.7243 30.4411 14.8644 30.763Z"
                    fill="#FFB448" />
            </g>
            <g style="mix-blend-mode:screen" opacity="0.69">
                <path
                    d="M13.9797 31.2399C14.3221 31.3251 14.6292 31.5154 14.8581 31.7839C14.5408 31.9413 14.1827 31.9971 13.8325 31.9439C13.4904 31.8571 13.1835 31.6665 12.9541 31.3983C13.2715 31.2411 13.6297 31.1858 13.9797 31.2399Z"
                    fill="#FFB448" />
            </g>
            <g style="mix-blend-mode:screen" opacity="0.69">
                <path
                    d="M13.9542 29.6383C13.978 29.987 13.8906 30.3343 13.7046 30.6303C13.4406 30.3961 13.2718 30.0732 13.2303 29.7228C13.1887 29.3724 13.2772 29.0189 13.479 28.7295C13.7289 28.975 13.8951 29.293 13.9542 29.6383Z"
                    fill="#FFB448" />
            </g>
            <g style="mix-blend-mode:screen" opacity="0.69">
                <path
                    d="M12.9766 29.8974C13.2886 30.0598 13.5415 30.3161 13.6998 30.6302C13.3549 30.7096 12.994 30.6805 12.6662 30.547C12.3537 30.3849 12.1001 30.1285 11.9414 29.8142C12.2868 29.7349 12.6483 29.764 12.9766 29.8974Z"
                    fill="#FFB448" />
            </g>
            <g style="mix-blend-mode:screen" opacity="0.69">
                <path
                    d="M13.1776 28.2226C13.1302 28.5695 12.9745 28.8926 12.7328 29.1458C12.5217 28.8637 12.4214 28.5138 12.4509 28.1626C12.4803 27.8114 12.6376 27.4833 12.8928 27.2402C13.0895 27.5293 13.1892 27.8733 13.1776 28.2226Z"
                    fill="#FFB448" />
            </g>
            <g style="mix-blend-mode:screen" opacity="0.69">
                <path
                    d="M12.1764 28.2861C12.4493 28.5063 12.6458 28.807 12.738 29.1453C12.3844 29.1565 12.0361 29.0575 11.7412 28.8621C11.466 28.6418 11.2677 28.3399 11.1748 27.9997C11.5302 27.9895 11.8801 28.0895 12.1764 28.2861Z"
                    fill="#FFB448" />
            </g>
            <g style="mix-blend-mode:screen" opacity="0.69">
                <path
                    d="M12.7763 26.8797C12.6743 27.2152 12.4688 27.5098 12.1891 27.7213C12.0423 27.4045 11.9998 27.0494 12.0675 26.7069C12.1698 26.3694 12.3758 26.0727 12.6563 25.8589C12.8042 26.1776 12.8463 26.5353 12.7763 26.8797Z"
                    fill="#FFB448" />
            </g>
            <g style="mix-blend-mode:screen" opacity="0.69">
                <path
                    d="M11.7732 26.7794C12.0072 27.0397 12.1528 27.3673 12.1892 27.7154C11.8389 27.6711 11.5109 27.5197 11.25 27.2818C11.0158 27.0211 10.8701 26.6929 10.834 26.3442C11.1843 26.3895 11.5122 26.5415 11.7732 26.7794Z"
                    fill="#FFB448" />
            </g>
            <g style="mix-blend-mode:screen" opacity="0.69">
                <path
                    d="M12.7329 25.3697C12.5506 25.6709 12.2787 25.9075 11.9553 26.0465C11.8912 25.7034 11.9377 25.3487 12.0881 25.0337C12.2704 24.7326 12.5423 24.4959 12.8657 24.3569C12.9298 24.7001 12.8833 25.0547 12.7329 25.3697Z"
                    fill="#FFB448" />
            </g>
            <g style="mix-blend-mode:screen" opacity="0.69">
                <path
                    d="M11.7825 25.04C11.9458 25.3485 12.0064 25.7011 11.9553 26.0464C11.6286 25.9213 11.3491 25.6976 11.1553 25.4064C10.9919 25.0974 10.9314 24.7443 10.9825 24.3984C11.3091 24.5244 11.5886 24.7486 11.7825 25.04Z"
                    fill="#FFB448" />
            </g>
            <g style="mix-blend-mode:screen" opacity="0.69">
                <path
                    d="M13.0019 23.8526C12.7528 24.1037 12.4319 24.2714 12.0835 24.3326C12.1023 23.9813 12.2323 23.6451 12.4547 23.3726C12.704 23.1216 13.0248 22.954 13.3731 22.8926C13.3538 23.2437 13.2239 23.5798 13.0019 23.8526Z"
                    fill="#FFB448" />
            </g>
            <g style="mix-blend-mode:screen" opacity="0.69">
                <path
                    d="M12.1575 23.3105C12.2422 23.6494 12.2164 24.0065 12.0839 24.3297C11.7954 24.1319 11.5761 23.8488 11.4567 23.5201C11.374 23.1789 11.402 22.8203 11.5367 22.4961C11.8231 22.6966 12.04 22.9812 12.1575 23.3105Z"
                    fill="#FFB448" />
            </g>
            <g style="mix-blend-mode:screen" opacity="0.69">
                <path
                    d="M13.5511 22.6049C13.2511 22.792 12.9009 22.8824 12.5479 22.8641C12.6501 22.527 12.8561 22.2307 13.1367 22.0177C13.4348 21.832 13.7827 21.7421 14.1335 21.7601C14.0329 22.0959 13.8291 22.3914 13.5511 22.6049Z"
                    fill="#FFB448" />
            </g>
            <g style="mix-blend-mode:screen" opacity="0.69">
                <path
                    d="M12.8548 21.888C12.858 22.2376 12.7505 22.5792 12.5476 22.864C12.2995 22.6153 12.1508 22.2844 12.1296 21.9338C12.1084 21.5831 12.2161 21.2368 12.4324 20.96C12.6669 21.2175 12.8146 21.542 12.8548 21.888Z"
                    fill="#FFB448" />
            </g>
            <g style="mix-blend-mode:screen" opacity="0.69">
                <path
                    d="M14.2392 21.4751C13.9131 21.6139 13.5521 21.6486 13.2056 21.5743C13.3587 21.2581 13.6072 20.9979 13.916 20.8303C14.242 20.6914 14.603 20.6568 14.9496 20.7311C14.7964 21.0473 14.5479 21.3075 14.2392 21.4751Z"
                    fill="#FFB448" />
            </g>
            <g style="mix-blend-mode:screen" opacity="0.69">
                <path
                    d="M13.6656 20.6594C13.6122 21.0054 13.451 21.3256 13.2048 21.5746C13.0136 21.282 12.9201 20.9364 12.9376 20.5874C12.993 20.2444 13.1541 19.9272 13.3984 19.6802C13.5877 19.9706 13.6811 20.3131 13.6656 20.6594Z"
                    fill="#FFB448" />
            </g>
            <g style="mix-blend-mode:screen" opacity="0.69">
                <path
                    d="M21.9028 32.7424C21.6376 32.9719 21.4517 33.2793 21.3716 33.6208C21.7257 33.6182 22.0705 33.5064 22.3588 33.3008C22.624 33.0713 22.8099 32.7638 22.89 32.4224C22.5358 32.425 22.1911 32.5367 21.9028 32.7424Z"
                    fill="#FFB448" />
            </g>
            <g style="mix-blend-mode:screen" opacity="0.69">
                <path
                    d="M22.4163 33.5998C22.0763 33.4998 21.7137 33.5071 21.3779 33.6206C21.5693 33.9177 21.8491 34.1472 22.1779 34.2766C22.5179 34.3768 22.8803 34.3701 23.2163 34.2574C23.0248 33.9601 22.7451 33.7302 22.4163 33.5998Z"
                    fill="#FFB448" />
            </g>
            <g style="mix-blend-mode:screen" opacity="0.69">
                <path
                    d="M23.3319 32.3697C23.1019 32.6337 22.9608 32.9635 22.9287 33.3121C23.2789 33.2628 23.6053 33.1063 23.8631 32.8641C24.093 32.6007 24.2341 32.2715 24.2663 31.9233C23.9164 31.9725 23.5901 32.1284 23.3319 32.3697Z"
                    fill="#FFB448" />
            </g>
            <g style="mix-blend-mode:screen" opacity="0.69">
                <path
                    d="M23.9543 33.1506C23.6041 33.0971 23.2459 33.153 22.9287 33.3106C23.1587 33.5783 23.4662 33.7678 23.8087 33.853C24.1589 33.9066 24.5171 33.8507 24.8343 33.693C24.6043 33.4254 24.2968 33.2358 23.9543 33.1506Z"
                    fill="#FFB448" />
            </g>
            <g style="mix-blend-mode:screen" opacity="0.69">
                <path
                    d="M24.6178 31.68C24.4326 31.9762 24.3464 32.3235 24.3714 32.672C24.7088 32.5693 25.0058 32.3641 25.221 32.0848C25.406 31.7885 25.4923 31.4412 25.4674 31.0928C25.1301 31.1954 24.8331 31.4007 24.6178 31.68Z"
                    fill="#FFB448" />
            </g>
            <g style="mix-blend-mode:screen" opacity="0.69">
                <path
                    d="M25.3572 32.3535C25.0035 32.3558 24.6592 32.4676 24.3716 32.6735C24.6422 32.9034 24.9778 33.0432 25.3316 33.0735C25.6857 33.0705 26.0303 32.9588 26.3188 32.7535C26.0475 32.5236 25.7115 32.3839 25.3572 32.3535Z"
                    fill="#FFB448" />
            </g>
            <g style="mix-blend-mode:screen" opacity="0.69">
                <path
                    d="M25.7765 30.7342C25.6682 31.0664 25.6682 31.4244 25.7765 31.7566C26.0775 31.5758 26.3147 31.3057 26.4549 30.9838C26.5638 30.6517 26.5638 30.2935 26.4549 29.9614C26.1539 30.1421 25.9167 30.4123 25.7765 30.7342Z"
                    fill="#FFB448" />
            </g>
            <g style="mix-blend-mode:screen" opacity="0.69">
                <path
                    d="M26.664 31.2114C26.3217 31.2976 26.0147 31.4883 25.7856 31.757C26.0969 31.9301 26.4598 31.9865 26.8088 31.9158C27.1579 31.8451 27.4703 31.652 27.6896 31.3714C27.3723 31.2142 27.0142 31.1583 26.664 31.2114Z"
                    fill="#FFB448" />
            </g>
            <g style="mix-blend-mode:screen" opacity="0.69">
                <path
                    d="M26.7367 29.5362C26.7131 29.8845 26.8005 30.2312 26.9863 30.5266C27.2506 30.2932 27.42 29.9709 27.4624 29.6208C27.5049 29.2708 27.4175 28.9173 27.2167 28.6274C26.9649 28.8722 26.7969 29.1903 26.7367 29.5362Z"
                    fill="#FFB448" />
            </g>
            <g style="mix-blend-mode:screen" opacity="0.69">
                <path
                    d="M27.712 29.7936C27.4004 29.9565 27.1476 30.2127 26.9888 30.5264C27.334 30.6067 27.6956 30.5782 28.024 30.4448C28.3355 30.2819 28.5884 30.0256 28.7472 29.712C28.4019 29.6326 28.0406 29.6611 27.712 29.7936Z"
                    fill="#FFB448" />
            </g>
            <g style="mix-blend-mode:screen" opacity="0.69">
                <path
                    d="M27.4272 28.1968C27.4746 28.5436 27.6303 28.8667 27.872 29.12C28.0831 28.8378 28.1834 28.488 28.1539 28.1368C28.1245 27.7856 27.9672 27.4574 27.712 27.2144C27.5153 27.5034 27.4156 27.8474 27.4272 28.1968Z"
                    fill="#FFB448" />
            </g>
            <g style="mix-blend-mode:screen" opacity="0.69">
                <path
                    d="M28.4337 28.2611C28.1608 28.4813 27.9643 28.782 27.8721 29.1203C28.2261 29.1306 28.5746 29.0318 28.8705 28.8371C29.1432 28.617 29.3392 28.3163 29.4305 27.9779C29.0769 27.9667 28.7286 28.0657 28.4337 28.2611Z"
                    fill="#FFB448" />
            </g>
            <g style="mix-blend-mode:screen" opacity="0.69">
                <path
                    d="M27.8294 26.845C27.9316 27.1808 28.1371 27.4759 28.4166 27.6882C28.5633 27.3708 28.6059 27.0152 28.5382 26.6722C28.4347 26.337 28.2288 26.0427 27.9494 25.8306C27.8029 26.1474 27.7609 26.5027 27.8294 26.845Z"
                    fill="#FFB448" />
            </g>
            <g style="mix-blend-mode:screen" opacity="0.69">
                <path
                    d="M28.8325 26.7505C28.5983 27.0112 28.4527 27.3395 28.4165 27.6881C28.7668 27.6428 29.0947 27.4909 29.3557 27.2529C29.5897 26.9926 29.7353 26.665 29.7717 26.3169C29.4214 26.3612 29.0934 26.5127 28.8325 26.7505Z"
                    fill="#FFB448" />
            </g>
            <g style="mix-blend-mode:screen" opacity="0.69">
                <path
                    d="M27.8646 25.3923C28.0479 25.6932 28.3202 25.9297 28.6438 26.0691C28.7079 25.7255 28.6614 25.3703 28.511 25.0547C28.3281 24.754 28.0564 24.5176 27.7334 24.3779C27.6683 24.7214 27.7142 25.0767 27.8646 25.3923Z"
                    fill="#FFB448" />
            </g>
            <g style="mix-blend-mode:screen" opacity="0.69">
                <path
                    d="M28.8164 25.0609C28.654 25.3703 28.5941 25.7232 28.6452 26.0689C28.9712 25.9427 29.2505 25.7192 29.4452 25.4289C29.6076 25.1195 29.6681 24.7667 29.618 24.4209C29.291 24.5462 29.011 24.7698 28.8164 25.0609Z"
                    fill="#FFB448" />
            </g>
            <g style="mix-blend-mode:screen" opacity="0.69">
                <path
                    d="M27.5841 23.8716C27.8324 24.1231 28.1528 24.2908 28.5009 24.3516C28.4831 24.0004 28.3536 23.6641 28.1313 23.3916C27.8824 23.1402 27.5614 22.9725 27.2129 22.9116C27.2308 23.2631 27.3609 23.5995 27.5841 23.8716Z"
                    fill="#FFB448" />
            </g>
            <g style="mix-blend-mode:screen" opacity="0.69">
                <path
                    d="M28.4291 23.331C28.3443 23.6698 28.3695 24.0267 28.5011 24.3502C28.7938 24.1529 29.0162 23.8677 29.1363 23.5358C29.221 23.197 29.1958 22.8401 29.0643 22.5166C28.7721 22.7144 28.5498 22.9994 28.4291 23.331Z"
                    fill="#FFB448" />
            </g>
            <g style="mix-blend-mode:screen" opacity="0.69">
                <path
                    d="M27.0565 22.6463C27.3567 22.8342 27.7077 22.9247 28.0613 22.9055C27.961 22.5691 27.7572 22.273 27.4789 22.0591C27.1787 21.8712 26.8278 21.7807 26.4741 21.7999C26.5744 22.1363 26.7782 22.4324 27.0565 22.6463Z"
                    fill="#FFB448" />
            </g>
            <g style="mix-blend-mode:screen" opacity="0.69">
                <path
                    d="M27.7476 21.9294C27.7444 22.279 27.852 22.6206 28.0548 22.9054C28.3041 22.6562 28.4533 22.3243 28.4742 21.9726C28.4951 21.6208 28.3863 21.2735 28.1684 20.9966C27.9334 21.2554 27.7861 21.5819 27.7476 21.9294Z"
                    fill="#FFB448" />
            </g>
            <g style="mix-blend-mode:screen" opacity="0.69">
                <path
                    d="M26.3238 21.5247C26.6493 21.6636 27.0096 21.6988 27.3558 21.6255C27.2029 21.3088 26.9544 21.048 26.6454 20.8799C26.3191 20.742 25.9584 20.7074 25.6118 20.7807C25.7654 21.0972 26.0145 21.3574 26.3238 21.5247Z"
                    fill="#FFB448" />
            </g>
            <g style="mix-blend-mode:screen" opacity="0.69">
                <path
                    d="M26.8963 20.7084C26.9489 21.0547 27.1096 21.3756 27.3555 21.6252C27.562 21.3392 27.6564 20.9874 27.6207 20.6364C27.5851 20.2854 27.4218 19.9597 27.1619 19.7212C26.9711 20.0138 26.8781 20.3595 26.8963 20.7084Z"
                    fill="#FFB448" />
            </g>
            <g style="mix-blend-mode:screen" opacity="0.69">
                <path
                    d="M25.9361 19.9136C25.9119 19.9375 25.8862 19.96 25.8593 19.9808L25.8337 19.9968C26.6865 20.7073 27.3739 21.5954 27.8479 22.5991C28.3218 23.6029 28.5709 24.698 28.5777 25.808C28.5777 30.128 24.8609 33.6336 20.2913 33.6336C15.7217 33.6336 12.0065 30.1232 12.0065 25.808C12.0118 24.7478 12.2389 23.7004 12.6732 22.7332C13.1075 21.766 13.7393 20.9004 14.5281 20.192C14.4823 20.1783 14.4379 20.1606 14.3953 20.1392C13.6051 20.8579 12.9729 21.7329 12.5385 22.7087C12.1042 23.6845 11.8772 24.7399 11.8721 25.808C11.8721 30.192 15.6497 33.76 20.2913 33.76C24.9329 33.76 28.7105 30.192 28.7105 25.808C28.7036 24.683 28.4519 23.5729 27.9728 22.555C27.4937 21.5371 26.7987 20.6358 25.9361 19.9136Z"
                    fill="#FFB448" />
            </g>
            <g style="mix-blend-mode:screen" opacity="0.69">
                <path
                    d="M15.3539 20.4799C15.0041 20.5372 14.6453 20.4846 14.3267 20.3295C14.5538 20.0596 14.859 19.8668 15.2003 19.7775C15.5495 19.7201 15.9078 19.7727 16.2259 19.9279C16 20.1984 15.695 20.3914 15.3539 20.4799Z"
                    fill="#FFB448" />
            </g>
            <g style="mix-blend-mode:screen" opacity="0.69">
                <path
                    d="M14.9987 19.5488C14.8621 19.8722 14.6269 20.1443 14.3267 20.3264C14.2132 19.9964 14.2076 19.6389 14.3107 19.3056C14.4485 18.9819 14.684 18.7095 14.9843 18.5264C15.0967 18.8571 15.1018 19.215 14.9987 19.5488Z"
                    fill="#FFB448" />
            </g>
            <g style="mix-blend-mode:screen" opacity="0.69">
                <path
                    d="M25.2641 20.4799C25.6138 20.5372 25.9727 20.4846 26.2913 20.3295C26.075 20.0466 25.7645 19.8505 25.4161 19.7769C25.0677 19.7032 24.7044 19.7568 24.3921 19.9279C24.6184 20.198 24.9231 20.391 25.2641 20.4799Z"
                    fill="#FFB448" />
            </g>
            <g style="mix-blend-mode:screen" opacity="0.69">
                <path
                    d="M25.6163 19.5488C25.7535 19.8719 25.9885 20.1438 26.2883 20.3264C26.4018 19.9964 26.4074 19.6389 26.3043 19.3056C26.1669 18.9822 25.9319 18.7098 25.6323 18.5264C25.5189 18.8569 25.5133 19.2149 25.6163 19.5488Z"
                    fill="#FFB448" />
            </g>
        </g>
        <path
            d="M21.68 24.0222C22.736 24.3022 23.376 24.9694 23.376 26.0686C23.376 28.6942 19.696 29.075 17.2192 28.3886L17.3504 26.5598C18.3104 27.0542 19.8736 27.2446 20.6768 26.7198C20.8126 26.6425 20.9273 26.533 21.0106 26.4008C21.094 26.2687 21.1434 26.118 21.1547 25.9622C21.1659 25.8063 21.1385 25.6501 21.075 25.5074C21.0115 25.3647 20.9137 25.2398 20.7904 25.1438C20.264 24.7726 19.4496 24.923 18.6848 24.8878V23.3342H19.656C21.5616 23.3342 21.6064 21.3374 19.608 21.3374C18.9258 21.3453 18.2508 21.4776 17.616 21.7278L17.5136 20.0862C17.9323 19.9572 18.3602 19.8604 18.7936 19.7966C23.5088 19.0878 23.696 22.2398 22.8336 23.3038C22.5313 23.6553 22.1288 23.906 21.68 24.0222Z"
            fill="#FFDC5A" />
    </g>
    <defs>
        <clipPath id="clip0">
            <rect fill="white" height="40" width="40" />
        </clipPath>
    </defs>
</svg>
