<svg width="24" height="24" viewBox="0 0 24 24" fill="none" xmlns="http://www.w3.org/2000/svg">
<path d="M9.88864 14.283C10.4692 14.1241 11 14.5941 11 15.196V19C11 19.5523 11.4477 20 12 20C12.5523 20 13 19.5523 13 19V15.1944C13 14.5931 13.53 14.1231 14.1102 14.2813C17.1934 15.1222 19.5351 17.7611 19.9384 21.0021C20.0066 21.5501 19.5523 22 19 22H5.00002C4.44773 22 3.99356 21.5505 4.06242 21.0025C4.26168 19.4167 4.9328 17.9185 6 16.7083C7.03737 15.5319 8.39157 14.6928 9.88864 14.283ZM12 13C8.685 13 6 10.315 6 7C6 3.685 8.685 1 12 1C15.315 1 18 3.685 18 7C18 10.315 15.315 13 12 13Z" fill="black"/>
</svg>
