<svg width="24" height="24" viewBox="0 0 24 24" fill="none" xmlns="http://www.w3.org/2000/svg">
<path d="M24 12L22.3592 9.22397L22.3939 5.99827L19.5819 4.41811L18.0017 1.60608L14.776 1.64072L12 0L9.22397 1.64077L5.99827 1.60608L4.41811 4.41816L1.60608 5.99831L1.64072 9.22402L0 12L1.64072 14.776L1.60603 18.0017L4.41806 19.5819L5.99822 22.3939L9.22397 22.3593L12 24L14.776 22.3593L18.0017 22.3939L19.5819 19.5819L22.3939 18.0018L22.3593 14.776L24 12ZM8.54906 5.23238C9.62409 4.68319 10.7851 4.4047 12 4.4047C13.2149 4.4047 14.3759 4.68314 15.4509 5.23238C16.4756 5.75588 17.3835 6.52008 18.0762 7.44239L16.9493 8.28891C15.7679 6.7162 13.964 5.81419 12 5.81419C10.036 5.81419 8.23205 6.71616 7.0507 8.28891L5.92383 7.44239C6.61664 6.52008 7.52442 5.75588 8.54906 5.23238ZM12.2705 11.4799V12.4623H10.56V12.9939H12.5825V14.0225H9.21937V9.97748H12.5074V11.0061H10.56V11.4799H12.2705V11.4799ZM4.689 9.97753H5.81006L7.34719 11.8151V9.97753H8.67628V14.0226H7.55522L6.01809 12.185V14.0226H4.689V9.97753ZM15.4509 18.7676C14.3759 19.3168 13.2149 19.5953 12 19.5953C10.7851 19.5953 9.624 19.3169 8.54902 18.7676C7.52433 18.2441 6.61655 17.4799 5.92373 16.5576L7.0507 15.7111C8.23205 17.2838 10.0359 18.1859 12 18.1859C13.964 18.1859 15.7679 17.2838 16.9493 15.7111L18.0762 16.5576C17.3834 17.4799 16.4756 18.2441 15.4509 18.7676ZM18.2225 14.0226H16.7605L16.1075 11.8613L15.4199 14.0226H13.9579L12.6635 9.97753H14.0677L14.7727 12.2774L15.5181 9.97753H16.7721L17.4771 12.3063L18.2225 9.97753H19.5169L18.2225 14.0226Z" fill="black"/>
</svg>
