<svg width="24" height="24" viewBox="0 0 24 24" fill="none" xmlns="http://www.w3.org/2000/svg">
<path d="M18.75 7.5H12.75V6H11.25V7.5H5.25C4.008 7.5 3 8.508 3 9.75V12H21V9.75C21 8.508 19.992 7.5 18.75 7.5Z" fill="black"/>
<path d="M22.5 13.5H1.5C0.672 13.5 0 14.172 0 15V16.5C0 18.1575 1.3425 19.5 3 19.5C4.6575 19.5 6 18.1575 6 16.5C6 18.1575 7.3425 19.5 9 19.5C10.6575 19.5 12 18.1575 12 16.5C12 18.1575 13.3425 19.5 15 19.5C16.6575 19.5 18 18.1575 18 16.5C18 18.1575 19.3425 19.5 21 19.5C22.6575 19.5 24 18.1575 24 16.5V15C24 14.172 23.328 13.5 22.5 13.5Z" fill="black"/>
<path d="M21 21.0001C19.848 21.0001 18.7965 20.5651 18 19.8511C17.2035 20.5651 16.152 21.0001 15 21.0001C13.848 21.0001 12.7965 20.5651 12 19.8511C11.2035 20.5651 10.152 21.0001 9 21.0001C7.848 21.0001 6.7965 20.5651 6 19.8511C5.2035 20.5651 4.152 21.0001 3 21.0001C1.8435 21.0001 0.798 20.5486 0 19.8301V22.5001C0 23.3281 0.672 24.0001 1.5 24.0001H22.5C23.328 24.0001 24 23.3281 24 22.5001V19.8301C23.202 20.5501 22.1565 21.0001 21 21.0001Z" fill="black"/>
<path d="M12 0C12 0 10.5 2.172 10.5 3C10.5 3.828 11.172 4.5 12 4.5C12.828 4.5 13.5 3.828 13.5 3C13.5 2.172 12 0 12 0Z" fill="black"/>
</svg>
