<svg width="24" height="24" viewBox="0 0 24 24" fill="none" xmlns="http://www.w3.org/2000/svg">
<path d="M24 18.1875C24 15.429 22.0777 13.1209 19.5 12.5256C19.0779 12.4283 18.6392 12.375 18.1875 12.375C18.0613 12.375 17.9366 12.3805 17.8125 12.3883C14.9957 12.5679 12.7252 14.7527 12.4129 17.5313C12.3887 17.7467 12.375 17.9655 12.375 18.1875C12.375 18.6056 12.4202 19.0131 12.504 19.4063C13.0643 22.0311 15.3954 24 18.1875 24C21.3977 24 24 21.3977 24 18.1875ZM18.1875 22.0313C16.0646 22.0313 14.3437 20.3104 14.3437 18.1875C14.3437 16.0646 16.0646 14.3437 18.1875 14.3437C20.3103 14.3437 22.0312 16.0646 22.0312 18.1875C22.0312 20.3104 20.3103 22.0313 18.1875 22.0313Z" fill="black"/>
<path d="M18.9375 15.5625H17.625V17.625H15.5625V18.9375H18.9375V17.625V15.5625Z" fill="black"/>
<path d="M4.31249 0C3.9506 0 3.65625 0.294392 3.65625 0.656235V2.15624V3.75C3.65625 4.11188 3.9506 4.40624 4.31249 4.40624H4.875C5.23688 4.40624 5.53123 4.11184 5.53123 3.75V2.15624V0.656235C5.53123 0.294392 5.23688 0 4.87496 0H4.31249Z" fill="black"/>
<path d="M14.625 0C14.2631 0 13.9688 0.294392 13.9688 0.656235V2.15624V3.75C13.9688 4.11188 14.2631 4.40624 14.625 4.40624H15.1875C15.5494 4.40624 15.8437 4.11184 15.8437 3.75V2.15624V0.656235C15.8437 0.294392 15.5493 0 15.1874 0H14.625Z" fill="black"/>
<path d="M1.5 19.4062H10.7813C10.6898 18.9513 10.6412 18.4813 10.6412 18C10.6412 17.8423 10.6481 17.6863 10.6582 17.5313H2.81251C2.19114 17.5313 1.68749 17.0276 1.68749 16.4062V7.40625H17.8125V10.885C17.9366 10.8786 18.0617 10.875 18.1875 10.875C18.636 10.875 19.0742 10.9185 19.5 10.9982V3.65625C19.5 2.82786 18.8284 2.15625 18 2.15625H16.7813V3.75001C16.7813 4.62884 16.0664 5.34378 15.1875 5.34378H14.625C13.7462 5.34378 13.0312 4.62884 13.0312 3.75001V2.15625H6.46875V3.75001C6.46875 4.62884 5.7538 5.34378 4.87498 5.34378H4.31247C3.43365 5.34378 2.71871 4.62884 2.71871 3.75001V2.15625H1.5C0.671608 2.15625 0 2.8279 0 3.65625V17.9062C0 18.7346 0.671608 19.4062 1.5 19.4062Z" fill="black"/>
<path d="M5.28527 11.7073C6.1073 11.7073 6.77367 11.0409 6.77367 10.2189C6.77367 9.39685 6.1073 8.73047 5.28527 8.73047C4.46325 8.73047 3.79688 9.39685 3.79688 10.2189C3.79688 11.0409 4.46325 11.7073 5.28527 11.7073Z" fill="black"/>
<path d="M9.75012 11.7073C10.5721 11.7073 11.2385 11.0409 11.2385 10.2189C11.2385 9.39685 10.5721 8.73047 9.75012 8.73047C8.9281 8.73047 8.26172 9.39685 8.26172 10.2189C8.26172 11.0409 8.9281 11.7073 9.75012 11.7073Z" fill="black"/>
<path d="M14.215 11.7073C15.037 11.7073 15.7033 11.0409 15.7033 10.2189C15.7033 9.39685 15.037 8.73047 14.215 8.73047C13.3929 8.73047 12.7266 9.39685 12.7266 10.2189C12.7266 11.0409 13.3929 11.7073 14.215 11.7073Z" fill="black"/>
<path d="M9.75007 16.2071C10.5721 16.2071 11.2384 15.5408 11.2384 14.7188C11.2384 13.8968 10.5721 13.2305 9.75007 13.2305C8.92808 13.2305 8.26172 13.8968 8.26172 14.7188C8.26172 15.5408 8.92808 16.2071 9.75007 16.2071Z" fill="black"/>
<path d="M5.28523 16.2071C6.10722 16.2071 6.77358 15.5408 6.77358 14.7188C6.77358 13.8968 6.10722 13.2305 5.28523 13.2305C4.46323 13.2305 3.79688 13.8968 3.79688 14.7188C3.79688 15.5408 4.46323 16.2071 5.28523 16.2071Z" fill="black"/>
</svg>
