<?xml version="1.0" standalone="no"?>
<!DOCTYPE svg PUBLIC "-//W3C//DTD SVG 20010904//EN"
 "http://www.w3.org/TR/2001/REC-SVG-20010904/DTD/svg10.dtd">
<svg version="1.0" xmlns="http://www.w3.org/2000/svg"
 width="567.000000pt" height="509.000000pt" viewBox="0 0 567.000000 509.000000"
 preserveAspectRatio="xMidYMid meet">

<g transform="translate(0.000000,509.000000) scale(0.100000,-0.100000)"
fill="#000000" stroke="none">
<path d="M1390 5060 c-189 -27 -349 -75 -505 -152 -385 -191 -678 -536 -798
-938 -53 -178 -62 -241 -61 -455 0 -191 2 -209 37 -380 63 -307 144 -539 287
-819 224 -441 555 -877 981 -1291 445 -432 965 -793 1397 -970 l112 -45 113
45 c432 177 963 547 1406 980 630 617 1058 1290 1216 1915 67 268 79 352 79
570 -1 226 -13 310 -75 493 -242 726 -995 1168 -1754 1032 -194 -35 -412 -124
-586 -240 -109 -73 -281 -232 -349 -324 -25 -33 -47 -60 -50 -61 -3 0 -16 17
-30 37 -48 71 -205 226 -310 305 -178 134 -426 243 -645 283 -106 19 -372 28
-465 15z"/>
</g>
</svg>
