<svg width="24" height="24" viewBox="0 0 24 24" fill="none" xmlns="http://www.w3.org/2000/svg">
<path d="M9.19238 13.1929H11.01V16.046H9.19238V13.1929Z" fill="black"/>
<path d="M6.08594 13.1929H7.90351V16.046H6.08594V13.1929Z" fill="black"/>
<path d="M5.74121 10.4312H7.90395V11.9036H5.74121V10.4312Z" fill="black"/>
<path d="M23.0001 10.2101V7.02525C23.0001 5.89611 22.0838 5 20.9749 5H17.79L23.0001 10.2101Z" fill="black"/>
<path d="M22.9997 14.3523V12.0331L15.9666 5H13.6475L22.9997 14.3523Z" fill="black"/>
<path d="M11.8247 5H3.02525C1.89611 5 1 5.91631 1 7.02529V18.0711C1 19.2002 1.91631 20.0963 3.02525 20.0963H20.9747C22.1038 20.0963 22.9999 19.18 22.9999 18.0711V16.1753L11.8247 5ZM12.6445 12.5482C12.6445 12.796 12.5044 13.0109 12.2994 13.1187V16.6904C12.2994 17.0463 12.0108 17.3349 11.6548 17.3349H5.44155C5.0856 17.3349 4.79702 17.0463 4.79702 16.6904V13.1187C4.59193 13.0109 4.45185 12.796 4.45185 12.5482V9.78672C4.45185 9.43076 4.74043 9.14219 5.09638 9.14219H6.99216L6.71171 8.86173C6.45999 8.61002 6.45999 8.20194 6.71171 7.95023C6.96337 7.69852 7.37149 7.69852 7.6232 7.95023L8.54819 8.87518L9.47318 7.95023C9.72484 7.69852 10.133 7.69852 10.3847 7.95023C10.6364 8.20194 10.6364 8.61002 10.3847 8.86173L10.1042 9.14219H12C12.3559 9.14219 12.6445 9.43076 12.6445 9.78672V12.5482ZM19.594 17.3349H15.4518C15.0959 17.3349 14.8073 17.0463 14.8073 16.6904C14.8073 16.3344 15.0959 16.0458 15.4518 16.0458H19.594C19.9499 16.0458 20.2385 16.3344 20.2385 16.6904C20.2385 17.0463 19.95 17.3349 19.594 17.3349V17.3349Z" fill="black"/>
<path d="M9.19238 10.4312H11.3551V11.9036H9.19238V10.4312Z" fill="black"/>
</svg>
