<svg width="24" height="24" viewBox="0 0 24 24" fill="none" xmlns="http://www.w3.org/2000/svg">
<path d="M7.40119 15.155L8.44608 17.0649L10.3559 18.1089C10.4929 18.1837 10.6071 18.2941 10.6867 18.4283C10.7663 18.5625 10.8083 18.7157 10.8083 18.8717C10.8083 19.0278 10.7663 19.1809 10.6867 19.3151C10.6071 19.4494 10.4929 19.5597 10.3559 19.6345L8.44608 20.6794L7.40119 22.5884C7.32628 22.7251 7.21599 22.8392 7.08186 22.9186C6.94774 22.9981 6.79471 23.04 6.63881 23.04C6.48292 23.04 6.3299 22.9981 6.19577 22.9186C6.06164 22.8392 5.95135 22.7251 5.87644 22.5884L4.83154 20.6794L2.92257 19.6345C2.78564 19.5597 2.67137 19.4494 2.59177 19.3151C2.51217 19.1809 2.47016 19.0278 2.47016 18.8717C2.47016 18.7157 2.51217 18.5625 2.59177 18.4283C2.67137 18.2941 2.78564 18.1837 2.92257 18.1089L4.83154 17.0649L5.87644 15.155C5.95135 15.0183 6.06164 14.9042 6.19577 14.8248C6.3299 14.7453 6.48292 14.7034 6.63881 14.7034C6.79471 14.7034 6.94774 14.7453 7.08186 14.8248C7.21599 14.9042 7.32628 15.0183 7.40119 15.155ZM17.6937 6.86886L18.8898 9.29159L21.5638 9.68017C21.7243 9.70349 21.8752 9.77127 21.9992 9.87585C22.1233 9.98043 22.2155 10.1177 22.2657 10.272C22.3158 10.4263 22.3217 10.5915 22.2828 10.749C22.2438 10.9065 22.1616 11.05 22.0454 11.1632L20.1103 13.0496L20.5676 15.7122C20.595 15.8721 20.5771 16.0365 20.516 16.1867C20.4548 16.3369 20.3529 16.4671 20.2217 16.5624C20.0904 16.6577 19.9351 16.7144 19.7734 16.7261C19.6116 16.7378 19.4498 16.704 19.3062 16.6285L16.9148 15.3715L14.5233 16.6285C14.3798 16.704 14.218 16.7378 14.0562 16.7261C13.8944 16.7144 13.7391 16.6577 13.6079 16.5624C13.4767 16.4671 13.3747 16.3369 13.3136 16.1867C13.2525 16.0365 13.2346 15.8721 13.262 15.7122L13.7184 13.0496L11.7833 11.1632C11.6671 11.05 11.5849 10.9064 11.546 10.7489C11.5071 10.5913 11.5131 10.426 11.5633 10.2716C11.6135 10.1173 11.7059 9.98009 11.8301 9.87557C11.9542 9.77104 12.1051 9.70335 12.2658 9.68017L14.9389 9.29159L16.135 6.86886C16.2069 6.72352 16.3179 6.60115 16.4556 6.5156C16.5933 6.43004 16.7522 6.3847 16.9143 6.3847C17.0765 6.3847 17.2354 6.43004 17.3731 6.5156C17.5108 6.60115 17.6218 6.72352 17.6937 6.86886ZM6.73531 2.40502L7.51159 3.97845L9.24758 4.23054C9.40796 4.25398 9.55859 4.32179 9.68247 4.42632C9.80635 4.53084 9.89854 4.66792 9.94862 4.82207C9.99871 4.97622 10.0047 5.14131 9.96593 5.29869C9.92715 5.45606 9.84514 5.59946 9.72917 5.7127L8.47303 6.93754L8.76859 8.66657C8.79587 8.82632 8.77795 8.99051 8.71685 9.14061C8.65575 9.29071 8.55391 9.42075 8.42282 9.51603C8.29173 9.61132 8.13662 9.66807 7.97499 9.67986C7.81336 9.69166 7.65165 9.65805 7.50811 9.58281L5.95555 8.76654L4.40298 9.58368C4.25935 9.65923 4.09743 9.69307 3.93556 9.68136C3.77369 9.66966 3.61833 9.61287 3.48707 9.51743C3.3558 9.42199 3.25388 9.29171 3.19283 9.14133C3.13178 8.99096 3.11404 8.8265 3.14163 8.66657L3.43719 6.93754L2.18193 5.7127C2.06595 5.59946 1.98395 5.45606 1.94517 5.29869C1.90639 5.14131 1.91238 4.97622 1.96247 4.82207C2.01256 4.66792 2.10475 4.53084 2.22862 4.42632C2.3525 4.32179 2.50314 4.25398 2.66352 4.23054L4.3995 3.97845L5.17579 2.40502C5.24753 2.25944 5.35859 2.13685 5.49639 2.05113C5.6342 1.96541 5.79325 1.91998 5.95555 1.91998C6.11784 1.91998 6.27689 1.96541 6.4147 2.05113C6.55251 2.13685 6.66357 2.25944 6.73531 2.40502Z" fill="black"/>
</svg>
